<svg width="1728" height="411" viewBox="0 0 1728 411" fill="none" xmlns="http://www.w3.org/2000/svg">
<g clip-path="url(#clip0_1481_611)">
<path d="M1103.58 268.285C1099.4 268.145 1096.8 265.057 1093.95 262.745C1085.07 255.56 1075.59 249.105 1067.66 240.772C1066.98 240.058 1065.94 239.701 1065.1 239.189C1062.99 240.772 1064.22 242.324 1065.07 243.627C1071.17 252.876 1077.17 262.217 1083.55 271.264C1090.92 281.723 1098.71 291.887 1106.21 302.253C1109.42 306.691 1112.01 311.47 1113.61 316.979C1112.24 317.6 1111.37 318.344 1110.49 318.344C1105.31 318.344 1100.11 318.22 1094.93 318.003C1093.58 317.941 1092.16 317.569 1090.91 317.057C1075.19 310.524 1060.09 303.091 1048.58 289.885C1041.97 282.313 1035.68 274.554 1029.74 266.422C1018.91 251.619 1007.27 237.404 995.958 222.958C994.887 221.592 993.491 220.459 992.637 218.97C984.972 205.64 972.139 197.633 960.765 188.152C959.958 187.469 958.344 187.733 957.118 187.546C956.917 186.926 956.7 186.336 956.482 185.731C956.777 186.289 957.072 186.833 957.367 187.391C962.658 198.61 967.949 209.83 973.225 221.064C977.648 230.468 981.853 239.98 986.508 249.26C989.596 255.436 993.708 261.115 996.61 267.369C1001.13 277.099 1005.02 287.123 1009.12 297.054C1009.77 298.653 1010.25 300.36 1010.53 302.051C1011.09 305.356 1008.01 308.134 1004.74 307.42C992.87 304.844 982.83 298.932 974.436 290.304C970.091 285.835 966.367 280.761 961.913 276.431C954.636 269.371 949.189 260.991 943.417 252.798C941.896 250.641 939.475 248.919 937.148 247.538C920.389 237.622 902.995 228.777 884.25 223.454C866.56 218.426 848.623 217.93 831.6 226.884C829.862 227.799 828.295 229.072 826.03 230.592C827.457 232.035 828.186 233.277 829.273 233.789C852.533 244.713 874.583 257.795 896.152 271.698C900.512 274.507 904.841 277.595 908.441 281.273C913.484 286.425 919.567 289.792 926.115 291.763C933.61 294.028 940.298 297.613 946.334 302.175C956.281 309.686 965.932 317.662 975.18 326.01C978.936 329.409 981.387 334.266 984.242 338.579C984.894 339.557 984.723 341.078 984.925 342.304C981.511 343.964 979.898 341.698 978.315 340.131C973.877 335.74 969.765 331.022 965.296 326.662C952.758 314.434 938.203 305.061 922.546 297.396C913.174 292.802 904.5 287.402 896.446 280.652C884.731 270.829 871.604 262.853 857.964 256.057C846.776 250.486 836.364 243.736 825.812 237.156C824.354 236.241 822.988 235.123 821.762 233.913C818.814 230.949 819.342 227.411 823.066 225.378C825.424 224.09 827.923 223.035 831.026 221.561C829.148 219.078 827.907 217.045 826.293 215.369C821.219 210.14 815.85 205.19 810.885 199.867C803.126 191.534 795.911 182.674 787.888 174.62C774.932 161.616 761.851 148.69 748.133 136.524C742.004 131.078 734.509 126.903 727.092 123.272C718.744 119.176 709.791 116.289 701.07 112.953C698.82 112.084 696.508 111.324 694.165 110.843C693.389 110.687 692.023 111.339 691.604 112.022C691.17 112.736 691.185 114.241 691.667 114.877C693.342 117.065 695.204 119.145 697.191 121.069C708.642 132.21 719.116 144.221 728.473 157.178C743.292 177.708 757.956 198.347 772.852 218.814C780.207 228.901 787.919 238.723 795.538 248.624C796.361 249.694 797.462 250.61 798.549 251.448C814.019 263.179 829.226 275.268 845.069 286.471C858.212 295.766 869.85 306.551 880.805 318.189C883.893 321.464 887.384 324.536 889.743 328.291C894.957 336.593 903.119 340.162 911.762 342.878C928.303 348.061 945.248 351.769 962.301 354.795C969.47 356.068 976.732 356.766 983.948 357.682C996.687 359.28 1009.44 360.646 1022.15 362.523C1027.26 363.268 1032.24 364.928 1037.19 366.465C1052.41 371.182 1067.59 376.023 1082.76 380.896C1085.72 381.843 1088.63 383.022 1091.51 384.217C1097.61 386.746 1103.77 389.043 1110.43 389.71C1112.13 389.881 1113.83 390.377 1115.46 390.936C1122.69 393.45 1130.04 395.064 1137.72 395.824C1145.98 396.631 1154.12 398.602 1162.35 399.905C1167.11 400.65 1171.94 401.131 1176.73 401.628C1179.49 401.922 1182.33 401.721 1185.03 402.279C1192.72 403.847 1200.24 402.962 1207.75 401.426C1223.38 398.214 1238.99 394.971 1254.58 391.634C1257.27 391.06 1259.86 389.974 1262.48 389.12C1273.7 385.536 1284.98 382.091 1296.14 378.305C1302.03 376.303 1307.76 373.82 1313.49 371.368C1329.45 364.525 1345.99 359.559 1362.72 354.92C1379.06 350.404 1395.03 344.585 1411.09 339.092C1438.65 329.688 1466.25 320.455 1494.76 314.201C1497.1 313.689 1499.27 312.448 1501.62 311.874C1521.77 306.877 1540.95 298.451 1561.53 294.959C1566.29 294.152 1570.93 292.554 1575.59 291.158C1596.5 284.919 1617.37 278.557 1638.31 272.366C1648.25 269.417 1658.34 266.888 1668.27 263.909C1681.88 259.827 1695.46 255.607 1708.99 251.277C1724.18 246.42 1739.37 241.594 1753.66 234.332C1757.66 232.299 1761.93 230.747 1766.2 229.351C1771.89 227.489 1773.94 228.451 1777.23 233.913C1777.93 235.077 1778.35 236.411 1778.98 237.854C1775.73 242.37 1770.84 244.512 1766.15 246.451C1755.93 250.688 1745.58 254.707 1735.04 258.105C1720.21 262.884 1705.28 267.524 1690.16 271.279C1680.14 273.762 1670.09 276.276 1659.87 278.169C1651.08 279.799 1642.68 283.476 1634.09 286.192C1616.91 291.623 1599.79 297.209 1582.52 302.346C1572.25 305.403 1561.74 307.653 1551.38 310.399C1548.03 311.284 1544.83 312.681 1541.51 313.658C1525.22 318.407 1508.91 323.186 1492.57 327.764C1486.58 329.44 1480.39 330.417 1474.4 332.062C1454.02 337.679 1433.7 343.405 1413.37 349.178C1396.35 354.02 1379.56 359.808 1362.33 363.703C1344.29 367.784 1327.34 374.767 1310.04 380.881C1297.32 385.381 1284.69 390.145 1271.96 394.676C1261.49 398.4 1250.7 400.976 1239.78 403.009C1226.5 405.491 1213.18 407.85 1199.92 410.426C1197.09 410.969 1194.27 411.45 1191.82 409.976C1187.98 407.664 1183.86 407.524 1179.73 407.897C1170.93 408.688 1162.46 406.593 1153.97 405.181C1143.39 403.412 1132.96 400.634 1122.45 398.322C1114.32 396.522 1106.08 395.141 1098.09 392.86C1087.45 389.819 1076.91 386.312 1066.48 382.587C1042.25 373.929 1017.68 366.853 991.861 364.928C973.132 363.532 954.729 360.18 936.651 354.997C927.667 352.421 918.512 350.326 909.714 347.192C904.252 345.237 898.79 342.443 894.305 338.812C876.259 324.179 858.336 309.36 840.942 293.966C834.192 287.992 827.768 281.707 820.304 276.602C812.018 270.938 803.902 265.026 795.461 259.626C789.797 255.995 785.157 251.572 781.48 245.97C775.77 237.265 769.857 228.699 764.054 220.056C760.004 214.019 755.302 208.418 753.192 201.202C752.556 198.998 750.616 197.136 749.158 195.197C741.446 184.939 733.873 174.574 725.897 164.534C717.068 153.408 707.835 142.607 698.82 131.621C695.748 127.866 692.691 124.079 689.836 120.169C688.625 118.524 687.446 116.584 687.151 114.644C686.872 112.798 687.275 110.455 688.284 108.918C689.51 107.041 691.992 107.056 693.979 108.018C701.163 111.463 708.953 112.658 718.201 115.669C713.67 108.391 707.525 104.325 706.066 96.8923C707.463 94.4871 710.116 93.6181 712.816 93.3388C715.547 93.0439 718.527 92.8112 721.087 93.5715C732.694 97.0165 744.766 99.5613 754.309 107.755C761.401 113.838 768.725 119.765 775.025 126.609C780.363 132.412 786.414 136.571 793.568 139.457C804.523 143.88 815.835 147.014 827.193 150.242C842.447 154.587 858.01 154.044 873.466 155.409C873.621 155.409 873.822 154.975 874.35 154.292C871.681 150.366 867.026 149.699 863.069 147.961C857.359 145.463 851.586 143.15 845.798 140.838C838.955 138.107 835.185 132.21 831.259 126.562C830.747 125.817 831.212 123.629 831.957 122.993C832.609 122.45 834.424 122.946 835.526 123.412C836.411 123.784 837.047 124.793 837.698 125.6C845.426 135.097 856.04 140.311 866.995 144.764C871.619 146.642 875.902 148.706 879.176 152.383C887.912 162.253 896.71 172.091 905.027 182.301C908.038 185.995 909.636 190.805 912.165 194.917C920.172 207.905 928.039 220.987 936.481 233.68C945.31 246.963 953.953 260.448 964.489 272.443C971.798 280.761 979.758 288.566 987.905 296.092C992.436 300.282 997.867 303.603 1004.94 301.694C1006.29 297.784 1004.07 294.634 1002.91 291.685C996.563 275.547 987.889 260.557 979.774 245.272C968.415 223.873 955.427 203.188 948.444 179.694C945 168.087 938.234 158.777 929.793 150.273C919.769 140.187 910.117 129.759 899.333 120.386C892.691 114.613 887.974 107.305 886.981 98.1492C886.872 97.1096 886.81 96.0544 886.515 95.0612C884.079 87.0076 879.89 80.5367 871.045 78.4729C867.895 77.728 865.024 76.5177 863.333 73.6624C862.697 72.6072 862.2 70.8072 862.681 69.9227C863.116 69.1468 865.288 68.5261 866.204 68.9451C871.836 71.5365 877.453 74.2211 882.822 77.3091C887.338 79.885 888.269 85.1299 890.41 89.3663C891.636 91.787 892.303 94.5802 892.815 97.2803C894.165 104.434 898.045 110.082 903.026 115.063C909.636 121.658 916.029 128.347 923.865 133.762C931.205 138.821 937.334 145.68 943.727 152.026C945.294 153.578 946.334 156.154 946.66 158.404C947.777 166.287 951.113 172.867 956.963 178.22C960.036 181.029 962.798 184.272 966.165 186.646C980.255 196.624 991.055 209.69 1001.36 223.268C1014.16 240.12 1026.56 257.314 1039.96 273.669C1047.85 283.275 1056.91 292.073 1066.33 300.189C1073.06 306.008 1081.21 310.26 1089.79 313.224C1095.52 315.194 1101.4 314.325 1107.57 314.093C1107.09 308.382 1102.64 305.496 1100.02 301.647C1091.45 289.032 1082.23 276.866 1073.76 264.188C1066.25 252.953 1059.17 241.408 1052.35 229.739C1047.12 220.785 1042.73 211.366 1037.73 202.288C1032.39 192.574 1026.68 183.077 1021.33 173.363C1019.53 170.105 1016.61 168.413 1013.73 166.52C1011.13 164.829 1008.29 163.401 1006.01 161.353C985.918 143.243 966.072 124.886 946.862 105.83C944.472 103.456 941.213 101.61 940.624 97.7768L941.307 97.1561C947.017 98.5993 950.586 103.053 954.558 106.824C967.887 119.455 980.937 132.397 994.375 144.919C1001.2 151.282 1008.46 157.24 1015.87 162.92C1019.81 165.946 1023.1 169.267 1025.61 173.518C1031.94 184.272 1038.68 194.809 1044.68 205.733C1047.83 211.459 1049.96 217.744 1054.44 222.725C1064.44 233.804 1075.08 244.217 1086.75 253.558C1091.88 257.671 1097.11 261.674 1102.22 265.833C1102.89 266.376 1103.01 267.571 1103.38 268.471L1103.57 268.269L1103.58 268.285ZM868.112 173.115C866.576 173.224 865.474 173.643 864.698 173.286C857.716 170.229 850.205 167.885 843.967 163.665C834.005 156.946 823.206 152.958 811.8 149.87C806.804 148.519 802.087 146.161 797.183 144.423C795.352 143.771 793.366 143.616 790.666 143.073C793.087 150.413 799.806 153.547 802.738 160.887C800.597 159.94 799.169 159.754 798.456 158.932C793.257 152.88 787.563 147.107 783.326 140.419C779.711 134.709 775.242 130.053 770.401 125.662C765.776 121.472 760.594 117.903 756.032 113.651C745.697 104.061 732.678 100.399 719.691 96.6285C716.199 95.6199 712.879 95.6199 709.589 98.5372C714.042 105.582 719.722 111.634 725.075 117.888C726.316 119.331 728.737 119.703 730.521 120.727C734.711 123.117 739.428 124.979 742.92 128.145C757.304 141.164 772.526 153.221 786.073 167.249C795.709 177.243 805.035 187.469 814.314 197.772C821.002 205.205 827.364 213.057 836.085 218.97C839.685 217.588 843.192 216.176 846.745 214.888C857.25 211.071 867.678 210.869 878.152 215.292C893.157 221.623 908.55 227.054 923.167 234.332C925.743 235.62 928.319 237.979 931.794 236.939C931.531 236.07 931.453 235.341 931.112 234.782C923.85 222.973 916.339 211.319 909.326 199.371C901.024 185.219 890.876 172.541 880.324 160.421C869.4 159.289 858.973 157.271 846.388 158.482C851.617 161.353 855.419 162.951 858.631 165.356C861.719 167.653 866.467 168.134 868.112 173.115Z" fill="#D94F1D"/>
<path d="M964.986 55.009C970.727 55.3038 976.592 55.878 982.442 55.8314C988.23 55.7849 992.389 57.7711 995.089 63.0781C1003.31 79.2165 1016.42 91.134 1029.77 102.788C1043.63 114.892 1058.51 125.661 1073.62 136.12C1079.89 140.449 1085.17 145.554 1089.87 151.839C1102.53 168.769 1115.95 185.171 1131.42 199.742C1133.92 202.085 1136.08 204.801 1138.39 207.33C1136.59 209.301 1135.74 207.563 1134.94 206.896C1127.64 200.564 1120.81 193.737 1113.3 187.576C1107.77 183.029 1103.74 176.636 1099.19 170.941C1092.26 162.282 1085.6 153.391 1078.48 144.887C1076.1 142.047 1072.83 139.875 1069.73 137.749C1053.12 126.39 1036.71 114.829 1021.92 101.065C1010.68 90.6064 1000.27 79.5889 992.839 66.0265C992.001 64.5058 990.992 63.0937 989.984 61.6971C989.596 61.154 988.944 60.7971 988.199 60.1919H968.322C970.773 72.6525 981.387 79.682 985.918 90.265C973.023 80.6286 963.62 68.1679 956.172 53.8452C947.855 51.2692 939.615 48.6002 931.298 46.1794C928.66 45.4191 925.789 44.7984 923.105 45.0156C908.41 46.1794 894.134 42.9828 879.75 41.0121C878.726 40.8724 877.655 40.8879 876.662 40.6086C863.286 36.9464 849.693 33.9205 836.612 29.4204C816.161 22.3909 795.274 17.658 773.923 14.7562C757.428 12.5217 740.933 10.3958 724.454 8.11469C720.683 7.58709 717.021 6.1905 713.235 5.89567C705.306 5.27496 697.392 4.90254 689.37 5.61635C665.489 7.74226 641.918 11.9475 618.255 15.5011C601.791 17.9684 585.234 19.8305 568.755 22.2202C553.315 24.4548 537.907 26.9996 522.514 29.4825C504.049 32.4619 485.583 35.5654 467.118 38.5292C464.744 38.9172 462.276 38.8086 459.856 38.8706C436.642 39.5069 413.413 40.112 390.199 40.8103C385.699 40.95 381.153 41.1052 376.699 41.7259C362.548 43.7277 348.365 43.8518 334.105 43.2932C324.05 42.9052 314.025 43.1225 303.97 44.4259C295.064 45.5743 285.986 45.6208 276.971 45.7294C255.153 45.9932 233.321 46.0243 211.504 46.1329C196.576 46.2105 181.788 47.9019 166.938 49.1899C150.397 50.633 133.809 51.4865 117.221 52.2158C102.728 52.852 88.2044 53.0538 73.6958 53.3176C61.9183 53.5348 50.2029 53.6279 38.4564 55.1797C26.803 56.7314 14.9479 56.6228 3.279 58.0504C-6.03129 59.1832 -15.295 60.2384 -24.6674 59.7419C-31.5725 59.3694 -38.4777 58.6867 -45.3673 57.9108C-46.919 57.7401 -48.3621 56.6694 -51 55.5055C-48.2535 53.9227 -46.6862 52.5417 -44.8862 52.0761C-35.5449 49.6399 -26.3588 46.8933 -16.583 45.9467C-0.770977 44.4104 14.8703 41.1517 30.6823 39.5224C44.446 38.0948 58.3494 37.6292 72.2062 37.2568C89.8647 36.7758 107.554 37.2568 125.182 36.4809C146.968 35.5343 168.707 33.6567 190.478 32.3222C207.081 31.298 223.7 30.6463 240.35 31.9032C246.185 32.3532 252.143 31.0653 257.993 31.4532C277.079 32.7101 296.103 31.8411 315.143 30.8946C322.762 30.5222 330.412 30.7704 338.031 31.0032C351.918 31.4377 365.729 30.7704 379.601 29.8394C397.213 28.6756 414.934 28.9704 432.608 28.7687C446.821 28.6135 461.05 29.048 475.202 26.9686C493.73 24.253 512.257 21.553 530.831 19.2563C552.183 16.6184 573.596 14.5545 594.948 11.9631C606.989 10.5044 618.969 8.45608 630.979 6.7181C637.155 5.8336 643.346 4.8715 649.553 4.2508C664.061 2.79214 678.57 1.53521 693.078 0.154142C695.903 -0.109658 698.649 -0.35794 700.93 1.79901C703.18 3.92493 706.035 3.70768 708.782 3.84734C717.766 4.31287 726.797 4.37494 735.735 5.306C747.451 6.53189 759.089 8.51815 770.773 10.0544C786.259 12.0872 801.497 15.3769 816.626 19.1632C821.654 20.4202 826.386 22.8099 831.398 24.1289C851.803 29.5135 871.743 36.8844 892.8 39.5379C901.381 40.6241 910.086 40.7793 918.729 41.3379C919.412 41.3845 920.188 41.4621 920.793 41.2293C932.167 36.9464 942.501 42.719 953.224 44.6122C956.389 45.1708 958.934 47.0639 960.889 49.6554C962.13 51.3003 963.403 52.9296 964.986 54.9779V55.009Z" fill="#D94F1D"/>
<path d="M1141.14 251.572C1138.89 250.998 1136.64 250.439 1134.42 249.881C1135.32 254.815 1135.35 254.784 1140.38 260.479C1143.28 263.769 1146.02 267.183 1148.41 270.938C1142.81 268.191 1139.09 263.272 1135.3 258.819C1124.52 246.156 1114.48 232.889 1104 219.978C1093.96 207.579 1083.74 195.352 1073.64 182.984C1069.93 178.437 1066.37 173.751 1062.65 169.003C1065.4 167.59 1066.05 169.918 1066.9 170.958C1081.55 188.508 1096.99 205.407 1110.77 223.718C1118.08 233.416 1127.56 241.16 1137.49 248.22C1138.81 249.151 1139.79 250.563 1140.93 251.758L1141.12 251.572H1141.14Z" fill="#D94F1D"/>
<path d="M940.655 97.8079C936.093 95.6664 933.191 91.787 930.491 87.799C926.813 82.3523 923.213 76.828 919.831 71.1796C917.55 67.3623 914.617 64.9881 910.101 64.2277C906.082 63.5605 901.955 62.6915 898.836 58.7345C900.062 57.8344 901.039 56.531 902.141 56.4223C903.77 56.2672 905.493 56.8879 907.153 57.2758C923.244 61.0621 920.684 58.4396 927.744 72.809C931.391 80.2264 936.139 87.1162 940.344 94.2698C940.856 95.1388 941.012 96.2096 941.322 97.1872L940.655 97.8079Z" fill="#D94F1D"/>
<path d="M1050.11 152.507C1035.45 142.25 997.06 105.318 989.611 94.7663C991.318 93.23 992.048 95.1387 992.761 95.8836C1001.13 104.62 1010.05 112.612 1019.54 120.184C1029.75 128.315 1038.4 138.402 1047.68 147.681C1048.34 148.349 1048.58 149.435 1050.1 152.507H1050.11Z" fill="#D94F1D"/>
<path d="M1190.37 265.181C1189.1 265.01 1187.44 265.305 1186.65 264.591C1182.27 260.696 1177.91 256.739 1173.89 252.487C1163.48 241.454 1153.27 230.235 1142.97 219.093C1141.46 217.48 1140.48 215.788 1141.85 213.6C1147.79 217.588 1170.7 242.09 1190.17 265.32L1190.37 265.181Z" fill="#D94F1D"/>
<path d="M1147.75 298.761C1139.97 293.764 1132.14 288.861 1124.46 283.709C1121.44 281.676 1117.29 280.869 1116.08 276.664L1115.98 276.773C1116.65 276.773 1117.46 276.493 1117.95 276.773C1126.21 281.505 1134.46 286.207 1142.59 291.126C1144.6 292.337 1146.29 294.137 1147.84 295.906C1148.29 296.418 1147.73 297.799 1147.64 298.777H1147.72L1147.75 298.761Z" fill="#D94F1D"/>
<path d="M1190.17 265.32C1191.44 267.524 1192.7 269.727 1194.21 272.334C1186.21 275.578 1178.58 275.174 1171.08 271.062C1170.88 270.953 1170.91 270.426 1170.82 270.1L1170.56 270.333C1175.93 270.208 1181.43 270.953 1186.45 268.3C1187.87 267.555 1189.01 266.267 1190.34 265.196C1190.39 265.15 1190.19 265.305 1190.19 265.305L1190.17 265.32Z" fill="#D94F1D"/>
<path d="M1159.71 285.168C1165.73 287.185 1168.54 291.887 1170.68 297.985C1165.11 301.942 1159.83 303.572 1153.86 299.63L1153.61 299.91C1157.93 299.397 1162.3 299.025 1166.63 296.092C1164.29 292.228 1162.08 288.613 1159.9 284.997L1159.7 285.199L1159.71 285.168Z" fill="#D94F1D"/>
<path d="M1103.4 268.502C1108.72 269.541 1112.12 273.529 1116.01 276.772L1116.11 276.664C1109.99 275.484 1108.21 274.274 1103.6 268.3L1103.41 268.502H1103.4Z" fill="#D94F1D"/>
<path d="M835.976 177.692C839.002 179.865 841.997 182.099 845.085 184.179C849.057 186.832 853.2 189.238 857.095 191.984C858.29 192.838 859.95 194.126 858.507 196.469C857.7 196.283 856.629 196.314 855.947 195.817C849.553 191.224 843.223 186.537 836.876 181.882C835.231 180.672 834.859 179.26 836.131 177.553L835.96 177.677L835.976 177.692Z" fill="#D94F1D"/>
<path d="M821.219 173.735C825.238 171.858 827.504 174.961 830.188 176.886L830.436 176.591C827.395 175.598 824.354 174.604 821.343 173.58C821.374 173.534 821.204 173.735 821.204 173.735H821.219Z" fill="#D94F1D"/>
</g>
<defs>
<clipPath id="clip0_1481_611">
<rect width="1830" height="411" fill="white" transform="translate(-51)"/>
</clipPath>
</defs>
</svg>
